<?xml version="1.0" encoding="UTF-8"?>
<svg id="Laag_1" data-name="Laag 1" xmlns="http://www.w3.org/2000/svg" viewBox="0 0 284.99 280.51">
  <defs>
    <style>
      .cls-1 {
        fill: #4f585d;
      }

      .cls-2 {
        fill: #6a7176;
      }

      .cls-3 {
        fill: #899095;
      }

      .cls-4 {
        fill: #a6adb1;
      }

      .cls-5 {
        fill: #f5d697;
      }

      .cls-6 {
        fill: #81888d;
      }

      .cls-7 {
        fill: #e1b589;
      }
    </style>
  </defs>
  <g>
    <path class="cls-2" d="M157.13,31.04S87.31,1.4,71.74.06c-15.57-1.34-47.65,21.38-53.31,28.65-5.66,7.28-1.89,22.23-1.89,29.85S.49,72.31.02,82.22s6.61,63.99,9.91,70.68c3.3,6.69-8.96,32.05-6.61,35.88,2.36,3.83,71.24,82.62,81.62,87.81s39.16-6.61,52.37-3.3c13.21,3.3,49.07,10.17,54.26,5.79,5.19-4.38,48.12-40.41,61.33-70.52,13.21-30.11,32.08-48.57,32.08-62.22s-5.66-71.73-10.85-82.32-29.25-37.79-41.52-40.23-75.49,7.23-75.49,7.23Z"/>
    <path class="cls-3" d="M155.16,40.56S93.5,14.39,79.75,13.21c-13.75-1.19-42.08,18.88-47.08,25.3-5,6.43-1.67,19.63-1.67,26.36s-14.17,12.15-14.58,20.9c-.42,8.75,5.83,56.51,8.75,62.42,2.92,5.91-7.92,28.3-5.83,31.69,2.08,3.39,62.91,72.96,72.08,77.55,9.17,4.58,34.58-5.83,46.25-2.92,11.67,2.92,43.33,8.98,47.91,5.12s42.5-35.68,54.16-62.27c11.67-26.59,28.33-42.89,28.33-54.94s-5-63.35-9.58-72.7c-4.58-9.35-25.83-33.37-36.66-35.53-10.83-2.15-66.66,6.39-66.66,6.39Z"/>
    <path class="cls-2" d="M41.02,63.01c-4.22,4.43,11.4,16.05,15.2,8.23s-10.98-12.67-15.2-8.23Z"/>
    <path class="cls-2" d="M61.13,53.72c-.16,3.86,12.09,2.89,10.65-2.4-1.44-5.29-10.49-1.46-10.65,2.4Z"/>
    <path class="cls-2" d="M185.35,239.32c-.17,3.86,12.09,2.89,10.65-2.4-1.44-5.29-10.49-1.46-10.65,2.4Z"/>
    <path class="cls-4" d="M228.81,61.01c-.71,3.8,11.56,4.56,10.88-.88-.68-5.44-10.18-2.92-10.88.88Z"/>
    <path class="cls-4" d="M256.26,140.36c-2.56,1.51,3.2,9.02,6.01,5.87s-3.45-7.38-6.01-5.87Z"/>
    <path class="cls-1" d="M129.74,254.09c-9.4-.6-26.72,1.36-26.06,4.11s35.46-3.52,26.06-4.11Z"/>
    <path class="cls-1" d="M182.87,260.46c-3.06-.78-10.35-1.44-9.93.72.42,2.17,10.72,11.07,12.47,10.2,1.75-.87.52-10.15-2.53-10.92Z"/>
  </g>
  <path class="cls-2" d="M223.64,157.98c-.44-7.16-2.05-14.43-6.07-20.36-5.68-8.39-15.36-13.05-24.76-16.83-7.31-2.94-14.9-5.59-22.61-7.29-.25-.78-.38-1.61-.43-2.43-.69-12.36,11.68-19.87,14.53-31.01,1.64-6.41-.19-11.7-3.93-15.45.18-1.36.37-2.86.67-4.49-23.81-8.09-49.71-12.94-74.07-6.68-29.13,7.48-53.35,31.61-60.96,60.7-7.61,29.09,1.71,61.99,23.45,82.77,10.69,10.22,23.85,17.46,37.18,23.85,11.79,5.65,24.05,10.79,37.03,12.4,20.72,2.57,42.43-4.51,57.64-18.81,15.21-14.3,23.62-35.54,22.33-56.37Z"/>
  <path class="cls-6" d="M219.55,159.45c-.4-6.95-1.85-14.02-5.48-19.79-5.13-8.15-13.87-12.68-22.36-16.36-6.6-2.86-13.46-5.43-20.42-7.08-.22-.76-.35-1.56-.39-2.36-.62-12.02,8.27-19.82,10.84-30.65,1.48-6.23,2.1-10.87-1.27-14.51.16-1.32-.27,1.58,0,0-21.5-7.86-44.29-16.94-66.29-10.86-26.3,7.27-48.18,30.72-55.05,59-6.87,28.28,1.55,60.25,21.18,80.45,9.65,9.93,21.54,16.97,33.58,23.18,10.65,5.49,20.48,9.02,32.2,10.59,18.71,2.5,39.56-2.92,53.3-16.82,13.74-13.9,21.33-34.54,20.17-54.79Z"/>
  <g>
    <path class="cls-5" d="M160.93,114.51c.25,1.13.67,2.25,1.45,3.09,1.17,1.26,2.94,1.73,4.62,2.1,11.54,2.49,24.67,3.22,32.66,11.92,9.01,9.82,7.23,25.08,4.7,38.17-1.72,8.94-3.65,18.16-8.89,25.61-7.44,10.56-20.61,15.91-33.49,16.89-12.88.98-25.72-1.82-38.33-4.61-9.8-2.17-19.85-4.44-28.19-10.01-17.99-12.01-23.42-35.82-24.98-57.39-.55-7.63-.79-15.44,1.35-22.78,2.8-9.64,9.51-17.72,17.2-24.17,17.59-14.76,40.36-20.66,62.93-21.43,9.15-.31,17.62,5.08,16.71,15.29-.84,9.51-9.97,17.3-7.76,27.33Z"/>
    <path class="cls-7" d="M106.93,91.2c-16.86,10.88-28.1,30.17-28.8,50.22-.7,20.05,9.36,40.26,26.03,51.42,6.81,4.56,14.53,7.63,22.43,9.84,20.1,5.63,43.58,5.17,59.6-8.21,11.54-9.65,17.61-25.54,15.17-40.38s-13.43-28.04-27.67-32.87c-14.25-4.83-31.14-.96-41.66,9.8-8.48,8.67-12.13,23.77-3.98,32.75,6.85,7.55,19.23,7.54,28.29,2.87,3.53-1.82,6.92-4.45,8.25-8.19,1.9-5.35-1.7-11.95-7.22-13.26-3.39-.8-7.69.9-8.19,4.34-.5,3.44,5.34,5.89,6.6,2.64-.31,3.16-4.35,5.06-7.22,3.72-2.87-1.34-4.13-5.08-3.19-8.11.94-3.03,3.67-5.27,6.69-6.24,8.39-2.71,18.23,5.38,17.19,14.14-.53,4.44-3.28,8.35-6.64,11.31-7.84,6.92-19.57,9.28-29.32,5.5-9.75-3.78-16.91-13.72-16.97-24.17-.07-13.65,11.33-25.35,24.32-29.55,12.99-4.2,27.13-2.38,40.45.61,8.2,1.84,16.74,4.37,22.52,10.48,4.08,4.32,6.37,10.06,7.69,15.86,3.84,16.89-.22,35.4-10.77,49.13-10.55,13.74-27.38,22.43-44.69,23.09-10.84.41-21.57-2.16-31.97-5.22-11.77-3.45-23.51-7.63-33.63-14.57-20.57-14.12-32.58-39.81-30.24-64.64,2.35-24.84,18.97-47.82,41.82-57.83,19.11-8.37,40.96-7.85,61.54-4.4-.13,6.57,1.42,10.47-4.88,11.5-5.2.85-12.62-2.04-18.25-1.84-12.69.45-22.11,5.15-33.31,10.25Z"/>
    <path class="cls-7" d="M115.07,89.72c.8,3.76-.52,7.68,0,11.49.94,6.9,7.44,11.59,10.36,17.91-2.66-.84-3.84-3.86-4.64-6.53-.85-2.81-1.66-5.68-1.61-8.61.06-3.27,1.19-6.41,1.87-9.61.68-3.2.85-6.74-.84-9.54-1.19-1.97-4.71-4.26-7.09-2.96-2.89,1.58,1.44,5.47,1.95,7.85Z"/>
    <path class="cls-7" d="M85.6,117.68c2.62,1.56,4.86,3.68,7.34,5.44,3.6,2.56,7.71,4.38,12.03,5.33,4.24.93,8.87,1.1,12.37,3.66-2.53-2-5.1-4.03-8.09-5.22-2.38-.95-4.97-1.35-7.27-2.47-7.61-3.71-9.91-13.97-17.14-18.37-1.03-.63-2.18-1.13-3.39-1.12-1.97.02-3.71,1.42-4.68,3.13-.95,1.67-3.12,7.68-.55,8.35.93.24,2.88-.79,4.05-.68,1.87.17,3.73.99,5.33,1.94Z"/>
    <path class="cls-7" d="M95.11,167.7c5.69-4.18,14-4.19,18.79-9.37-7.4,6.92-13.97,14.74-19.51,23.22-1.62,2.48-3.69,5.74-6.88,6.27-3.95.66-4.8-3.32-4.39-6.49.33-2.54,1.98-4.06,3.75-5.75,2.73-2.59,5.2-5.66,8.24-7.89Z"/>
    <path class="cls-7" d="M146.89,200.45c-2.83-6.69-2.52-14.23-2.16-21.48-.29,5.27,2.55,10.23,5.97,14.25,3.43,4.02,7.53,7.46,10.58,11.77.9,1.27,1.69,3.06.72,4.27-.41.52-1.05.78-1.68,1-2.57.89-6.19,2.11-8.13-.06-2.16-2.42-4.05-6.76-5.31-9.75Z"/>
  </g>
</svg>