<?xml version="1.0" encoding="UTF-8"?>
<svg id="Layer_2" data-name="Layer 2" xmlns="http://www.w3.org/2000/svg" viewBox="0 0 144.61 143.09">
  <defs>
    <style>
      .cls-1 {
        fill: #cfd7d7;
      }
    </style>
  </defs>
  <path class="cls-1" d="M144.47,76.44c-1.78-6.63-15.11,3.13-21.67-.24-2.07-1.06-5.1-3.56-10.96-3.73-.85,1.4.09,3.27-.33,4.89-.58,2.26.12,4.86-.22,7.16-.04.27-.38.42-.61.35-1.24-.35-2-1.61-2.6-2.66-.81-1.43-.25-3.46-1.13-4.85-1.5-2.37-2.75-3.33-5.38-4.07-4.28,1.16-11.26,3.46-15.89,7.19-.73.59-1.4,1.1-2.05,1.58.25.33.48.68.64,1.08.94,2.35-.21,5.01-2.56,5.95-2.35.94-5.02-.21-5.95-2.56-.37-.92-.4-1.88-.19-2.77.1-3.05,3.71-9.72,9.5-17.26-.27-.29-.53-.61-.79-.97-.31-.36-.64-.91-.99-1.73.29.65.63,1.22.99,1.73.44.52.82.65,1.12.54.19-.24.38-.49.57-.73.08-.29.1-.63.01-.91-.49-4.43,1.14-5.1,3.35-3.41,10.45-14.32,10.35-25.58,6.95-32.18-3.64-7.06,16.17-24.39,9.4-28.38-6.77-4-13.44,20.08-20.05,20.83-6.06.69-15-4.02-21.34,5.46,2.55,2.72,5.59,4.78,8.91,6.56.48.26.2.88-.25.93-2.9.3-4.28.62-7.38-.03-1.23-.26-3.09-1.43-4.23-1.79-5.73,16.04-12.4,48.61-18.38,38.57-1.1-1.84-1.5-5.86-1.65-7.95-3.32-.99-5.33-.54-8.8-.98-.62-.08-.82-1.82-.16-1.79,4.05.19,5.72-2.77,9.51-3.48,1.41-8.68,3.67-18.01-6.5-25.52-16.18-11.95-12.82-16.45-15.81-25.78-2.99-9.32-3.05,14-4.77,20.38S.07,30.24,0,54.6c-.04,13.28,1.41,20.69,3.43,27.56,1.05.41,1.94,1.23,2.39,2.36.53,1.34.33,2.79-.42,3.9,1.22,3.74,2.52,7.78,3.78,12.94,1.47,6.05,2.08,11.58,2.96,16.55.25.25.5.6.76,1.09-.2.04-.37.06-.54.08,1.02,5.27,2.49,9.87,5.85,13.76.03,0,.06,0,.1,0-.01.04-.02.06-.02.09.07.08.13.15.2.23.48-.14,1.66-.6,2.66,2.49,1.89,1.51,4.21,2.88,7.05,4.11-1.65-3.9-.48-7.64,6.1-4.71-1.39-7.4.58-1.34.47-5.26,2.76,6.87,4.36,11.2,5.03,13.25,8.38.54,10.45-5.45,24.54-7.63,18.61-2.89,24.17-1.59,29.5-17.01,3.05-8.83,13.26-10.75,21.78-13.71-1.14.13-2.27-.49-2.72-1.61-.53-1.33.12-2.85,1.46-3.38,1.33-.53,2.85.12,3.38,1.45.46,1.16.03,2.46-.98,3.13,5.86-2.16,10.69-5.01,11.43-11.3,1.83-15.67,18.07-9.91,16.29-16.54ZM31.41,50.52c2.75,1.13,1.81-3.66,5.92,3.21-1.63,0-3.41-3.51-3.08,2.26-.74-1.69-.75,1.22-5.23-5.17-.09-.13-.19-.27-.3-.43.1.15.2.29.3.43,2.86,3.99,1.82-.85,2.39-.3ZM29.68,120.66c-.96.38-2.04-.09-2.42-1.04-.38-.96.09-2.04,1.04-2.42.96-.38,2.04.09,2.42,1.04.38.96-.09,2.04-1.04,2.42ZM41.92,97.32c-1.8-5.62-1.56-5.17-1.95-3.16.14.64-.04,1.29-.46,1.77-.12.34-.26.69-.43,1.03-5.42,2.15-9.55-8.7-3.98-3.72-2.74-5.7-4.53-8.51-5.24-9.93-.05.03-.1.06-.16.08-1.04.41-2.22-.09-2.64-1.13-.41-1.04.09-2.22,1.14-2.64,1.04-.41,2.22.09,2.64,1.13.13.34.16.68.12,1.02.06,0,.12,0,.19-.01,7.94,8.62,14.18,7.98,10.78,15.56ZM46.69,89.86c-2.35.94-5.02-.21-5.95-2.56-.94-2.35.21-5.01,2.56-5.95,2.35-.94,5.02.21,5.95,2.56.94,2.35-.21,5.01-2.56,5.95ZM54.06,98.03c-1.37,3.99.7,10.91-5.82-1.9,2.17-1.08.26-2.62.98-4.44,5.09-.68,8.13.37,11.74,4.68-1.18,2.95-.83,7.06-6.9,1.66ZM66.51,117.14c-1.04.41-2.22-.09-2.64-1.13-.41-1.04.09-2.22,1.14-2.64,1.04-.41,2.22.09,2.64,1.13.41,1.04-.09,2.22-1.14,2.64ZM73.71,57.38c-.41-1.04.09-2.22,1.14-2.64,1.04-.41,2.22.09,2.64,1.13.03.06.04.13.06.19.21-.24.47-.45.79-.57,1.04-.41,2.22.09,2.64,1.14.41,1.04-.09,2.22-1.14,2.64-1.04.41-2.22-.09-2.64-1.13-.03-.06-.04-.13-.06-.19-.21.24-.47.45-.79.57-1.04.41-2.22-.09-2.64-1.13ZM78.37,100.86c-1.23.49-2.62-.11-3.1-1.34-.49-1.23.11-2.62,1.34-3.1,1.23-.49,2.62.11,3.1,1.34.49,1.23-.11,2.62-1.34,3.1Z"/>
  <path class="cls-1" d="M36.95,142.65c.89.18,1.72.3,2.49.36-.18-.43-.39-.94-.63-1.55-.65.48-1.27.86-1.86,1.18Z"/>
</svg>